<svg xmlns="http://www.w3.org/2000/svg" version="1.1" xmlns:xlink="http://www.w3.org/1999/xlink" xmlns:svgjs="http://svgjs.com/svgjs" width="700" height="400" preserveAspectRatio="none" viewBox="0 0 700 400"><g mask="url(&quot;#SvgjsMask2550&quot;)" fill="none"><rect width="700" height="400" x="0" y="0" fill="url(#SvgjsLinearGradient2551)"></rect><path d="M700 0L478.08000000000004 0L700 175.52z" fill="rgba(255, 255, 255, .1)"></path><path d="M478.08000000000004 0L700 175.52L700 196.95000000000002L386.54 0z" fill="rgba(255, 255, 255, .075)"></path><path d="M386.54 0L700 196.95000000000002L700 247.72000000000003L304.85 0z" fill="rgba(255, 255, 255, .05)"></path><path d="M304.85 0L700 247.72000000000003L700 319.86L140.13000000000002 0z" fill="rgba(255, 255, 255, .025)"></path><path d="M0 400L289.91 400L0 347.15z" fill="rgba(0, 0, 0, .1)"></path><path d="M0 347.15L289.91 400L400.32000000000005 400L0 187.45999999999998z" fill="rgba(0, 0, 0, .075)"></path><path d="M0 187.46L400.32000000000005 400L437.78000000000003 400L0 156.39000000000001z" fill="rgba(0, 0, 0, .05)"></path><path d="M0 156.39000000000001L437.78000000000003 400L559.82 400L0 55.920000000000016z" fill="rgba(0, 0, 0, .025)"></path></g><defs><mask id="SvgjsMask2550"><rect width="700" height="400" fill="#ffffff"></rect></mask><linearGradient x1="89.29%" y1="-18.75%" x2="10.71%" y2="118.75%" gradientUnits="userSpaceOnUse" id="SvgjsLinearGradient2551"><stop stop-color="#0e2a47" offset="0"></stop><stop stop-color="rgba(255, 255, 255, 0.23)" offset="0"></stop><stop stop-color="rgba(254, 234, 161, 1)" offset="0.47"></stop><stop stop-color="rgba(254, 234, 161, 1)" offset="1"></stop></linearGradient></defs></svg>